<svg width="36" height="36" viewBox="0 0 36 36" fill="none" xmlns="http://www.w3.org/2000/svg">
    <path opacity="0.2" d="M28.125 21.4962L22.9504 26.6708C22.813 26.8081 22.6424 26.9076 22.4552 26.9595C22.268 27.0113 22.0705 27.0138 21.8821 26.9667L13.7319 24.9291C13.579 24.8909 13.4359 24.821 13.3117 24.724L5.625 18.7132L10.2058 10.0955L17.4226 7.99149C17.6804 7.91634 17.9566 7.93587 18.2013 8.04658L23.0625 10.2462H20.1535C20.0058 10.2462 19.8595 10.2753 19.723 10.3318C19.5865 10.3883 19.4625 10.4712 19.358 10.5757L13.8547 16.079C13.7407 16.1929 13.6526 16.3301 13.5962 16.4811C13.5399 16.6321 13.5166 16.7934 13.528 16.9542C13.5395 17.115 13.5853 17.2714 13.6625 17.4129C13.7396 17.5545 13.8463 17.6777 13.9752 17.7745L14.7375 18.3462C15.5164 18.9304 16.4638 19.2462 17.4375 19.2462C18.4112 19.2462 19.3586 18.9304 20.1375 18.3462L21.9375 16.9962L28.125 21.4962Z" fill="#166534FF"/>
    <path d="M33.8509 17.126L30.375 18.8639L25.875 10.2461L29.3863 8.49047C29.6501 8.35857 29.9552 8.33554 30.2358 8.42635C30.5164 8.51716 30.7501 8.71453 30.8867 8.97598L34.345 15.599C34.4142 15.7314 34.4563 15.8763 34.4688 16.0252C34.4814 16.1741 34.4642 16.3239 34.4182 16.4661C34.3722 16.6082 34.2983 16.7398 34.2009 16.8531C34.1035 16.9664 33.9845 17.0591 33.8509 17.126V17.126Z" stroke="#166534FF" stroke-width="2.5" stroke-linecap="round" stroke-linejoin="round"/>
    <path d="M5.62503 18.7133L2.14911 16.9753C2.01548 16.9085 1.8965 16.8157 1.7991 16.7025C1.70171 16.5892 1.62786 16.4576 1.58187 16.3155C1.53587 16.1733 1.51865 16.0234 1.5312 15.8746C1.54376 15.7257 1.58584 15.5808 1.65499 15.4484L5.11337 8.82535C5.24989 8.5639 5.48363 8.36652 5.76424 8.27572C6.04486 8.18491 6.34991 8.20794 6.61372 8.33984L10.125 10.0955L5.62503 18.7133Z" stroke="#166534FF" stroke-width="2.5" stroke-linecap="round" stroke-linejoin="round"/>
    <path d="M30.375 18.864L28.125 21.4962L22.9504 26.6708C22.813 26.8082 22.6424 26.9076 22.4552 26.9595C22.268 27.0113 22.0705 27.0138 21.8821 26.9667L13.7319 24.9292C13.579 24.8909 13.4359 24.821 13.3117 24.724L5.625 18.7133" stroke="#166534FF" stroke-width="2.5" stroke-linecap="round" stroke-linejoin="round"/>
    <path d="M28.125 21.4962L21.9375 16.9962L20.1375 18.3462C19.3586 18.9304 18.4112 19.2462 17.4375 19.2462C16.4638 19.2462 15.5164 18.9304 14.7375 18.3462L13.9752 17.7745C13.8463 17.6778 13.7396 17.5545 13.6625 17.413C13.5853 17.2715 13.5395 17.115 13.528 16.9542C13.5166 16.7935 13.5399 16.6321 13.5962 16.4811C13.6526 16.3301 13.7407 16.193 13.8547 16.079L19.358 10.5757C19.4625 10.4713 19.5865 10.3884 19.723 10.3319C19.8595 10.2753 20.0058 10.2462 20.1535 10.2462H25.875" stroke="#166534FF" stroke-width="2.5" stroke-linecap="round" stroke-linejoin="round"/>
    <path d="M10.2056 10.0955L17.4224 7.99149C17.6802 7.91634 17.9564 7.93587 18.2011 8.04658L23.0623 10.2462" stroke="#3D3E3E" stroke-width="1.5" stroke-linecap="round" stroke-linejoin="round"/>
    <path d="M15.75 29.9337L11.5116 28.8741C11.3396 28.8311 11.1803 28.748 11.0465 28.6317L7.875 25.875" stroke="#3D3E3E" stroke-width="1.5" stroke-linecap="round" stroke-linejoin="round"/>
</svg>
