<svg width="36" height="36" viewBox="0 0 36 36" fill="none" xmlns="http://www.w3.org/2000/svg">
    <path opacity="0.2" d="M12.3751 22.5C16.4136 22.5 19.6876 19.2261 19.6876 15.1875C19.6876 11.1489 16.4136 7.875 12.3751 7.875C8.33648 7.875 5.06256 11.1489 5.06256 15.1875C5.06256 19.2261 8.33648 22.5 12.3751 22.5Z" fill="#166534FF"/>
    <path d="M12.3751 22.5C16.4136 22.5 19.6876 19.2261 19.6876 15.1875C19.6876 11.1489 16.4136 7.875 12.3751 7.875C8.33648 7.875 5.06256 11.1489 5.06256 15.1875C5.06256 19.2261 8.33648 22.5 12.3751 22.5Z" stroke="#166534FF" stroke-width="2.5" stroke-miterlimit="10"/>
    <path d="M21.8548 8.14736C22.8606 7.86398 23.9154 7.79942 24.9482 7.95804C25.9811 8.11665 26.9679 8.49475 27.8423 9.06688C28.7167 9.639 29.4583 10.3919 30.0173 11.2747C30.5762 12.1576 30.9395 13.15 31.0826 14.1851C31.2256 15.2202 31.1453 16.274 30.8468 17.2754C30.5484 18.2768 30.0388 19.2026 29.3524 19.9905C28.666 20.7784 27.8188 21.4101 26.8677 21.8429C25.9167 22.2758 24.8839 22.4998 23.839 22.5" stroke="#166534FF" stroke-width="2.5" stroke-linecap="round" stroke-linejoin="round"/>
    <path d="M2.24927 27.7589C3.39133 26.1344 4.90749 24.8085 6.66974 23.8932C8.432 22.9779 10.3886 22.5001 12.3744 22.5C14.3602 22.4999 16.3168 22.9776 18.0791 23.8928C19.8415 24.808 21.3577 26.1337 22.4999 27.7581" fill="#166534FF"/>
    <path d="M2.24927 27.7589C3.39133 26.1344 4.90749 24.8085 6.66974 23.8932C8.432 22.9779 10.3886 22.5001 12.3744 22.5C14.3602 22.4999 16.3168 22.9776 18.0791 23.8928C19.8415 24.808 21.3577 26.1337 22.4999 27.7581" stroke="#166534FF" stroke-width="2.5" stroke-linecap="round" stroke-linejoin="round"/>
    <path d="M23.839 22.5C25.8249 22.4986 27.782 22.9757 29.5445 23.891C31.3069 24.8063 32.8229 26.1328 33.964 27.7581" stroke="#166534FF" stroke-width="1.5" stroke-linecap="round" stroke-linejoin="round"/>
</svg>
