<svg width="36" height="36" viewBox="0 0 36 36" fill="none" xmlns="http://www.w3.org/2000/svg">
    <path opacity="0.2" d="M18 31.5C25.4558 31.5 31.5 25.4558 31.5 18C31.5 10.5442 25.4558 4.5 18 4.5C10.5442 4.5 4.5 10.5442 4.5 18C4.5 25.4558 10.5442 31.5 18 31.5Z" fill="#166534FF"/>
    <path d="M18 31.5C25.4558 31.5 31.5 25.4558 31.5 18C31.5 10.5442 25.4558 4.5 18 4.5C10.5442 4.5 4.5 10.5442 4.5 18C4.5 25.4558 10.5442 31.5 18 31.5Z" stroke="#166534FF" stroke-width="2.5" stroke-linecap="round" stroke-linejoin="round"/>
    <path d="M23.8469 21.3745C23.2539 22.4003 22.4014 23.2519 21.3751 23.8441C20.3489 24.4362 19.1849 24.7479 18 24.7479C16.8152 24.7479 15.6512 24.4362 14.6249 23.8441C13.5986 23.252 12.7461 22.4003 12.1531 21.3746" stroke="#166534FF" stroke-width="2.5" stroke-linecap="round" stroke-linejoin="round"/>
    <path d="M13.375 15.1875C13.375 15.4291 13.1791 15.625 12.9375 15.625C12.6959 15.625 12.5 15.4291 12.5 15.1875C12.5 14.9459 12.6959 14.75 12.9375 14.75C13.1791 14.75 13.375 14.9459 13.375 15.1875Z" stroke="#166534FF" stroke-width="2.5"/>
    <path d="M21.375 15.1875H24.75" stroke="#166534FF" stroke-width="2.5" stroke-linecap="round" stroke-linejoin="round"/>
</svg>
