<?xml version="1.0" encoding="UTF-8" standalone="no"?>
<!DOCTYPE svg PUBLIC "-//W3C//DTD SVG 1.1//EN" "http://www.w3.org/Graphics/SVG/1.1/DTD/svg11.dtd">
<svg width="100%" height="100%" viewBox="0 0 600 600" version="1.1" xmlns="http://www.w3.org/2000/svg" xmlns:xlink="http://www.w3.org/1999/xlink" xml:space="preserve" xmlns:serif="http://www.serif.com/" style="fill-rule:evenodd;clip-rule:evenodd;stroke-linecap:round;stroke-linejoin:round;stroke-miterlimit:1.5;">
    <g transform="matrix(1,0,0,1,-12.5,-2)">
        <g transform="matrix(1,0,0,1,20.5,14.5)">
            <g transform="matrix(1.03204,0,0,1.03204,-18.627,-14.3707)">
                <path d="M300.5,511C421.174,511 519,413.174 519,292.5L300.5,292.5L300.5,511Z" style="fill:rgb(220,38,38);"/>
            </g>
            <g transform="matrix(-1.03204,0,0,-1.03204,601.627,589.371)">
                <path d="M300.5,511C421.174,511 519,413.174 519,292.5L300.5,292.5L300.5,511Z" style="fill:rgb(220,38,38);"/>
            </g>
            <g transform="matrix(-1.03204,0,0,1.03204,601.627,-14.3707)">
                <path d="M300.5,511C421.174,511 519,413.174 519,292.5L300.5,292.5L300.5,511Z" style="fill:white;"/>
            </g>
            <g transform="matrix(1.03204,0,0,-1.03204,-18.627,589.371)">
                <path d="M300.5,511C421.174,511 519,413.174 519,292.5L300.5,292.5L300.5,511Z" style="fill:white;"/>
            </g>
        </g>
        <g transform="matrix(1.18307,0,0,1.18307,-43.0114,-44.0469)">
            <circle cx="300.5" cy="292.5" r="218.5" style="fill:none;stroke:rgb(214,37,51);stroke-width:34.66px;"/>
        </g>
        <g transform="matrix(1,0,0,1,12.7342,3.55559)">
            <g>
                <g transform="matrix(-0.556518,-0.830835,0.830835,-0.556518,-214.284,772.678)">
                    <path d="M115.397,424.509C113.597,423.039 111.257,422.079 108.407,422.079C103.997,422.079 100.757,424.299 100.757,428.379C100.757,431.769 103.007,432.939 107.327,433.989C111.287,434.949 113.477,435.669 113.477,438.069C113.477,440.199 111.707,441.309 108.677,441.309C105.437,441.309 102.527,439.809 101.237,438.459L99.947,440.739C102.347,442.689 105.347,443.739 108.617,443.739C112.997,443.739 116.357,441.909 116.357,437.799C116.357,433.959 113.597,432.699 109.157,431.709C105.317,430.839 103.547,430.239 103.547,427.959C103.547,425.799 105.047,424.479 108.347,424.479C110.897,424.479 113.147,425.589 114.137,426.699L115.397,424.509Z" style="fill:white;fill-rule:nonzero;"/>
                </g>
                <g transform="matrix(-0.447957,-0.894055,0.894055,-0.447957,-253.643,677.708)">
                    <path d="M91.377,417.461C96.087,417.461 99.297,413.711 99.297,409.361C99.297,404.981 96.057,401.231 91.377,401.231C86.727,401.231 83.487,404.981 83.487,409.361C83.487,413.711 86.667,417.461 91.377,417.461ZM86.187,409.391C86.187,406.121 88.527,403.511 91.377,403.511C94.257,403.511 96.597,406.091 96.597,409.331C96.597,412.601 94.257,415.181 91.377,415.181C88.497,415.181 86.187,412.661 86.187,409.391Z" style="fill:white;fill-rule:nonzero;"/>
                </g>
                <g transform="matrix(-0.344975,-0.938612,0.938612,-0.344975,-272.067,589.022)">
                    <path d="M75.106,389.444L75.106,375.854L79.276,375.854L79.276,373.784L75.106,373.784L75.106,373.364C75.106,370.874 76.066,369.494 77.806,369.494C78.586,369.494 79.486,369.764 80.056,370.154L80.716,368.204C79.756,367.604 78.496,367.244 77.266,367.244C74.326,367.244 72.466,369.614 72.466,373.454L72.466,373.784L70.336,373.784L70.336,375.854L72.466,375.854L72.466,389.444L75.106,389.444Z" style="fill:white;fill-rule:nonzero;"/>
                </g>
                <g transform="matrix(-0.256942,-0.966427,0.966427,-0.256942,-277.214,521.817)">
                    <path d="M71.598,364.599C71.298,364.779 70.338,365.259 69.288,365.259C68.358,365.259 67.578,364.749 67.518,363.609L67.518,353.889L71.028,353.889L71.028,351.819L67.518,351.819L67.518,346.599L64.878,346.599L64.878,351.819L62.748,351.819L62.748,353.889L64.878,353.889L64.878,364.419C64.878,366.669 66.498,367.689 68.418,367.689C70.098,367.689 71.568,366.999 72.228,366.699L71.598,364.599Z" style="fill:white;fill-rule:nonzero;"/>
                </g>
                <g transform="matrix(-0.136414,-0.990652,0.990652,-0.136414,-277.503,447.521)">
                    <path d="M72.688,342.105L70.048,335.595L72.718,329.085L70.528,329.085L68.608,334.095L66.688,329.085L64.498,329.085L67.198,335.595L64.558,342.105L59.158,329.055L56.638,329.055L63.298,344.715L65.488,344.715L68.608,337.065L71.758,344.715L73.948,344.715L80.608,329.055L78.058,329.055L72.688,342.105Z" style="fill:white;fill-rule:nonzero;"/>
                </g>
                <g transform="matrix(-0.00475693,-0.999989,0.999989,-0.00475693,-255.23,361.641)">
                    <path d="M58.497,308.13C60.927,308.13 63.177,307.11 64.587,305.25L64.647,306.36C64.767,307.23 65.397,307.95 66.447,307.95C66.837,307.95 67.167,307.92 67.707,307.83L67.707,305.55C67.107,305.52 66.867,305.25 66.867,304.59L66.867,298.2C66.867,294.24 64.407,291.9 60.327,291.9C58.257,291.9 56.247,292.59 54.237,293.94L55.107,295.65C56.817,294.45 58.467,293.82 60.087,293.82C62.697,293.82 64.227,295.38 64.227,297.93L64.227,299.19C63.027,298.71 61.377,298.41 59.847,298.41C55.977,298.41 53.247,300.39 53.247,303.24C53.247,306 55.527,308.13 58.497,308.13ZM59.187,306.15C57.237,306.15 55.767,304.8 55.767,303.03C55.767,301.23 57.597,300 60.237,300C61.587,300 62.997,300.27 64.227,300.75L64.227,303.06C64.227,303.42 64.017,303.87 63.657,304.23C62.817,305.4 61.047,306.15 59.187,306.15Z" style="fill:white;fill-rule:nonzero;"/>
                </g>
                <g transform="matrix(0.105878,-0.994379,0.994379,0.105878,-229.285,301.557)">
                    <path d="M63.452,262.526C63.242,262.496 62.972,262.496 62.582,262.496C60.602,262.646 58.712,264.086 57.632,266.246L57.632,262.616L55.172,262.616L55.172,278.276L57.812,278.276L57.812,268.616C58.652,266.336 60.812,264.986 63.452,264.926L63.452,262.526Z" style="fill:white;fill-rule:nonzero;"/>
                </g>
                <g transform="matrix(0.210456,-0.977603,0.977603,0.210456,-205.157,256.063)">
                    <path d="M65.008,255.343C68.158,255.343 70.828,253.693 71.848,251.383L69.568,250.753C68.908,252.313 67.018,253.363 65.098,253.363C62.368,253.363 60.058,251.203 59.818,248.113L72.808,248.113C72.838,247.933 72.868,247.513 72.868,247.093C72.868,242.893 69.778,239.113 65.038,239.113C60.328,239.113 57.028,242.803 57.028,247.213C57.028,251.623 60.298,255.343 65.008,255.343ZM59.758,246.163C59.968,243.193 62.248,241.093 65.038,241.093C67.828,241.093 70.108,243.163 70.378,246.163L59.758,246.163Z" style="fill:white;fill-rule:nonzero;"/>
                </g>
                <g transform="matrix(0.413071,-0.910699,0.910699,0.413071,-146.469,184.607)">
                    <path d="M71.156,195.137C71.156,200.537 75.296,206.117 81.146,206.117C84.446,206.117 88.256,204.347 89.606,201.167L87.356,199.937C86.126,202.577 83.486,203.687 81.266,203.687C77.036,203.687 73.886,199.697 73.886,195.257C73.886,191.237 76.436,186.947 81.176,186.947C83.336,186.947 85.826,187.847 87.086,190.547L89.216,189.167C87.896,186.437 85.076,184.517 81.296,184.517C74.876,184.517 71.156,189.977 71.156,195.137Z" style="fill:white;fill-rule:nonzero;"/>
                </g>
                <g transform="matrix(0.517669,-0.855581,0.855581,0.517669,-109.76,157.315)">
                    <path d="M95.056,160.256C94.846,160.226 94.576,160.226 94.186,160.226C92.206,160.376 90.316,161.816 89.236,163.976L89.236,160.346L86.776,160.346L86.776,176.006L89.416,176.006L89.416,166.346C90.256,164.066 92.416,162.716 95.056,162.656L95.056,160.256Z" style="fill:white;fill-rule:nonzero;"/>
                </g>
                <g transform="matrix(0.603184,-0.797602,0.797602,0.603184,-85.7042,139.535)">
                    <path d="M103.531,156.2C105.961,156.2 108.211,155.18 109.621,153.32L109.681,154.43C109.801,155.3 110.431,156.02 111.481,156.02C111.871,156.02 112.201,155.99 112.741,155.9L112.741,153.62C112.141,153.59 111.901,153.32 111.901,152.66L111.901,146.27C111.901,142.31 109.441,139.97 105.361,139.97C103.291,139.97 101.281,140.66 99.271,142.01L100.141,143.72C101.851,142.52 103.501,141.89 105.121,141.89C107.731,141.89 109.261,143.45 109.261,146L109.261,147.26C108.061,146.78 106.411,146.48 104.881,146.48C101.011,146.48 98.281,148.46 98.281,151.31C98.281,154.07 100.561,156.2 103.531,156.2ZM104.221,154.22C102.271,154.22 100.801,152.87 100.801,151.1C100.801,149.3 102.631,148.07 105.271,148.07C106.621,148.07 108.031,148.34 109.261,148.82L109.261,151.13C109.261,151.49 109.051,151.94 108.691,152.3C107.851,153.47 106.081,154.22 104.221,154.22Z" style="fill:white;fill-rule:nonzero;"/>
                </g>
                <g transform="matrix(0.686823,-0.726825,0.726825,0.686823,-60.3852,125.789)">
                    <path d="M121.383,132.966L121.383,119.376L125.553,119.376L125.553,117.306L121.383,117.306L121.383,116.886C121.383,114.396 122.343,113.016 124.083,113.016C124.863,113.016 125.763,113.286 126.333,113.676L126.993,111.726C126.033,111.126 124.773,110.766 123.543,110.766C120.603,110.766 118.743,113.136 118.743,116.976L118.743,117.306L116.613,117.306L116.613,119.376L118.743,119.376L118.743,132.966L121.383,132.966Z" style="fill:white;fill-rule:nonzero;"/>
                </g>
                <g transform="matrix(0.749924,-0.661524,0.661524,0.749924,-44.0266,116.502)">
                    <path d="M141.678,113.603C141.378,113.783 140.418,114.263 139.368,114.263C138.438,114.263 137.658,113.753 137.598,112.613L137.598,102.893L141.108,102.893L141.108,100.823L137.598,100.823L137.598,95.603L134.958,95.603L134.958,100.823L132.828,100.823L132.828,102.893L134.958,102.893L134.958,113.423C134.958,115.673 136.578,116.693 138.498,116.693C140.178,116.693 141.648,116.003 142.308,115.703L141.678,113.603Z" style="fill:white;fill-rule:nonzero;"/>
                </g>
                <g transform="matrix(0.803984,-0.594651,0.594651,0.803984,-30.9072,109.124)">
                    <path d="M154.84,101.443L154.84,85.783L152.2,85.783L152.2,101.443L154.84,101.443ZM154.84,82.843L154.84,79.543L152.2,79.543L152.2,82.843L154.84,82.843Z" style="fill:white;fill-rule:nonzero;"/>
                </g>
                <g transform="matrix(0.860326,-0.509744,0.509744,0.860326,-22.6391,97.3006)">
                    <path d="M181.951,80.601C181.951,76.821 180.901,74.031 177.271,74.031C174.511,74.031 171.991,75.471 170.761,77.661L170.761,74.301L168.361,74.301L168.361,89.961L171.001,89.961L171.001,80.511C171.721,78.141 174.061,76.401 176.221,76.401C178.291,76.401 179.311,77.871 179.311,81.201L179.311,89.961L181.951,89.961L181.951,80.601Z" style="fill:white;fill-rule:nonzero;"/>
                </g>
                <g transform="matrix(0.916676,-0.399632,0.399632,0.916676,-13.9127,83.3652)">
                    <path d="M201.328,75.226C203.548,75.226 205.738,74.026 206.908,72.106L206.908,74.866C206.908,78.136 204.448,79.696 201.568,79.696C199.318,79.696 197.218,78.766 195.988,76.936L194.458,78.286C195.928,80.416 198.028,81.736 201.568,81.736C206.008,81.736 209.548,79.306 209.548,74.866L209.548,59.386L207.208,59.386L207.208,62.506C205.888,60.556 203.968,59.116 201.358,59.116C197.068,59.116 194.098,62.836 194.098,67.246C194.098,71.416 197.068,75.226 201.328,75.226ZM202.138,73.066C199.138,73.066 196.768,70.426 196.768,67.306C196.768,64.396 198.718,61.396 201.898,61.396C203.968,61.396 206.068,62.926 206.908,65.056L206.908,69.556C206.488,71.326 204.358,73.066 202.138,73.066Z" style="fill:white;fill-rule:nonzero;"/>
                </g>
                <g transform="matrix(0.979656,-0.200686,0.200686,0.979656,-6.6492,49.7366)">
                    <path d="M248.137,57.964C250.567,57.964 252.817,56.944 254.227,55.084L254.287,56.194C254.407,57.064 255.037,57.784 256.087,57.784C256.477,57.784 256.807,57.754 257.347,57.664L257.347,55.384C256.747,55.354 256.507,55.084 256.507,54.424L256.507,48.034C256.507,44.074 254.047,41.734 249.967,41.734C247.897,41.734 245.887,42.424 243.877,43.774L244.747,45.484C246.457,44.284 248.107,43.654 249.727,43.654C252.337,43.654 253.867,45.214 253.867,47.764L253.867,49.024C252.667,48.544 251.017,48.244 249.487,48.244C245.617,48.244 242.887,50.224 242.887,53.074C242.887,55.834 245.167,57.964 248.137,57.964ZM248.827,55.984C246.877,55.984 245.407,54.634 245.407,52.864C245.407,51.064 247.237,49.834 249.877,49.834C251.227,49.834 252.637,50.104 253.867,50.584L253.867,52.894C253.867,53.254 253.657,53.704 253.297,54.064C252.457,55.234 250.687,55.984 248.827,55.984Z" style="fill:white;fill-rule:nonzero;"/>
                </g>
                <g transform="matrix(0.996849,-0.0793219,0.0793219,0.996849,-3.30997,21.6651)">
                    <path d="M286.764,43.135C286.764,39.355 285.714,36.565 282.084,36.565C279.324,36.565 276.804,38.005 275.574,40.195L275.574,36.835L273.174,36.835L273.174,52.495L275.814,52.495L275.814,43.045C276.534,40.675 278.874,38.935 281.034,38.935C283.104,38.935 284.124,40.405 284.124,43.735L284.124,52.495L286.764,52.495L286.764,43.135Z" style="fill:white;fill-rule:nonzero;"/>
                </g>
                <g transform="matrix(0.999033,0.0439712,-0.0439712,0.999033,2.52698,-13.2122)">
                    <path d="M310.172,51.135C312.422,51.135 314.672,49.905 315.902,47.895L315.902,49.215C315.902,50.115 316.802,50.955 317.852,50.955C318.182,50.955 318.452,50.925 319.022,50.835L319.022,48.555C318.422,48.525 318.182,48.255 318.182,47.595L318.182,28.935L315.542,28.935L315.542,38.295C314.402,36.405 312.332,34.905 309.812,34.905C305.672,34.905 302.702,38.595 302.702,43.035C302.702,47.355 305.822,51.135 310.172,51.135ZM310.802,48.855C307.772,48.855 305.432,46.215 305.432,43.065C305.432,40.065 307.472,37.185 310.562,37.185C312.542,37.185 314.792,38.805 315.542,40.845L315.542,45.345C315.152,47.295 312.692,48.855 310.802,48.855Z" style="fill:white;fill-rule:nonzero;"/>
                </g>
                <g transform="matrix(0.968496,0.249029,-0.249029,0.968496,25.174,-86.0325)">
                    <path d="M370.527,35.18L353.127,35.18L353.127,37.58L360.477,37.58L360.477,56.48L363.177,56.48L363.177,37.58L370.527,37.58L370.527,35.18Z" style="fill:white;fill-rule:nonzero;"/>
                </g>
                <g transform="matrix(0.934224,0.356687,-0.356687,0.934224,47.7858,-131.175)">
                    <path d="M388.619,64.278C391.769,64.278 394.439,62.628 395.459,60.318L393.179,59.688C392.519,61.248 390.629,62.298 388.709,62.298C385.979,62.298 383.669,60.138 383.429,57.048L396.419,57.048C396.449,56.868 396.479,56.448 396.479,56.028C396.479,51.828 393.389,48.048 388.649,48.048C383.939,48.048 380.639,51.738 380.639,56.148C380.639,60.558 383.909,64.278 388.619,64.278ZM383.369,55.098C383.579,52.128 385.859,50.028 388.649,50.028C391.439,50.028 393.719,52.098 393.989,55.098L383.369,55.098Z" style="fill:white;fill-rule:nonzero;"/>
                </g>
                <g transform="matrix(0.885921,0.463836,-0.463836,0.885921,81.646,-180.56)">
                    <path d="M415.515,76.003C419.295,76.003 421.725,74.143 421.725,71.233C421.725,68.563 419.745,67.723 415.575,66.733C412.905,66.073 411.885,65.743 411.885,64.273C411.885,62.473 413.415,61.693 415.335,61.693C417.045,61.693 418.755,62.263 420.075,63.433L421.275,61.843C419.865,60.613 417.735,59.773 415.395,59.773C412.065,59.773 409.395,61.483 409.395,64.633C409.395,67.093 410.985,67.813 414.765,68.743C417.765,69.463 419.175,69.913 419.175,71.473C419.175,73.093 417.705,74.053 415.455,74.053C413.445,74.053 411.615,73.333 409.785,71.953L408.645,73.723C410.385,75.193 413.025,76.003 415.515,76.003Z" style="fill:white;fill-rule:nonzero;"/>
                </g>
                <g transform="matrix(0.832607,0.553865,-0.553865,0.832607,121.752,-224.368)">
                    <path d="M441.666,86.361C441.366,86.541 440.406,87.021 439.356,87.021C438.426,87.021 437.646,86.511 437.586,85.371L437.586,75.651L441.096,75.651L441.096,73.581L437.586,73.581L437.586,68.361L434.946,68.361L434.946,73.581L432.816,73.581L432.816,75.651L434.946,75.651L434.946,86.181C434.946,88.431 436.566,89.451 438.486,89.451C440.166,89.451 441.636,88.761 442.296,88.461L441.666,86.361Z" style="fill:white;fill-rule:nonzero;"/>
                </g>
                <g transform="matrix(0.78191,0.623392,-0.623392,0.78191,162.45,-258.882)">
                    <path d="M455.991,102.733L455.991,87.073L453.351,87.073L453.351,102.733L455.991,102.733ZM455.991,84.133L455.991,80.833L453.351,80.833L453.351,84.133L455.991,84.133Z" style="fill:white;fill-rule:nonzero;"/>
                </g>
                <g transform="matrix(0.714698,0.699433,-0.699433,0.714698,213.798,-293.356)">
                    <path d="M482.208,106.03C482.208,102.25 481.158,99.46 477.528,99.46C474.768,99.46 472.248,100.9 471.018,103.09L471.018,99.73L468.618,99.73L468.618,115.39L471.258,115.39L471.258,105.94C471.978,103.57 474.318,101.83 476.478,101.83C478.548,101.83 479.568,103.3 479.568,106.63L479.568,115.39L482.208,115.39L482.208,106.03Z" style="fill:white;fill-rule:nonzero;"/>
                </g>
                <g transform="matrix(0.623829,0.781561,-0.781561,0.623829,290.845,-329.582)">
                    <path d="M496.175,137.53C498.395,137.53 500.585,136.33 501.755,134.41L501.755,137.17C501.755,140.44 499.295,142 496.415,142C494.165,142 492.065,141.07 490.835,139.24L489.305,140.59C490.775,142.72 492.875,144.04 496.415,144.04C500.855,144.04 504.395,141.61 504.395,137.17L504.395,121.69L502.055,121.69L502.055,124.81C500.735,122.86 498.815,121.42 496.205,121.42C491.915,121.42 488.945,125.14 488.945,129.55C488.945,133.72 491.915,137.53 496.175,137.53ZM496.985,135.37C493.985,135.37 491.615,132.73 491.615,129.61C491.615,126.7 493.565,123.7 496.745,123.7C498.815,123.7 500.915,125.23 501.755,127.36L501.755,131.86C501.335,133.63 499.205,135.37 496.985,135.37Z" style="fill:white;fill-rule:nonzero;"/>
                </g>
                <g transform="matrix(0.441488,0.897267,-0.897267,0.441488,450.626,-363.664)">
                    <path d="M518.602,169.34C518.602,174.74 522.742,180.32 528.592,180.32C531.892,180.32 535.702,178.55 537.052,175.37L534.802,174.14C533.572,176.78 530.932,177.89 528.712,177.89C524.482,177.89 521.332,173.9 521.332,169.46C521.332,165.44 523.882,161.15 528.622,161.15C530.782,161.15 533.272,162.05 534.532,164.75L536.662,163.37C535.342,160.64 532.522,158.72 528.742,158.72C522.322,158.72 518.602,164.18 518.602,169.34Z" style="fill:white;fill-rule:nonzero;"/>
                </g>
                <g transform="matrix(0.321521,0.946902,-0.946902,0.321521,559.797,-360.332)">
                    <path d="M540.313,210.767C545.023,210.767 548.233,207.017 548.233,202.667C548.233,198.287 544.993,194.537 540.313,194.537C535.663,194.537 532.423,198.287 532.423,202.667C532.423,207.017 535.603,210.767 540.313,210.767ZM535.123,202.697C535.123,199.427 537.463,196.817 540.313,196.817C543.193,196.817 545.533,199.397 545.533,202.637C545.533,205.907 543.193,208.487 540.313,208.487C537.433,208.487 535.123,205.967 535.123,202.697Z" style="fill:white;fill-rule:nonzero;"/>
                </g>
                <g transform="matrix(0.200494,0.979695,-0.979695,0.200494,667.206,-337.678)">
                    <path d="M556.214,230.59C556.214,226.81 555.164,224.02 551.534,224.02C548.774,224.02 546.254,225.46 545.024,227.65L545.024,224.29L542.624,224.29L542.624,239.95L545.264,239.95L545.264,230.5C545.984,228.13 548.324,226.39 550.484,226.39C552.554,226.39 553.574,227.86 553.574,231.19L553.574,239.95L556.214,239.95L556.214,230.59Z" style="fill:white;fill-rule:nonzero;"/>
                </g>
                <g transform="matrix(0.0901539,0.995928,-0.995928,0.0901539,765.383,-297.922)">
                    <path d="M551.356,269.937L551.356,256.347L555.526,256.347L555.526,254.277L551.356,254.277L551.356,253.857C551.356,251.367 552.316,249.987 554.056,249.987C554.836,249.987 555.736,250.257 556.306,250.647L556.966,248.697C556.006,248.097 554.746,247.737 553.516,247.737C550.576,247.737 548.716,250.107 548.716,253.947L548.716,254.277L546.586,254.277L546.586,256.347L548.716,256.347L548.716,269.937L551.356,269.937Z" style="fill:white;fill-rule:nonzero;"/>
                </g>
                <g transform="matrix(-0.0126842,0.99992,-0.99992,-0.0126842,847.017,-250.945)">
                    <path d="M556.46,292.998C559.61,292.998 562.28,291.348 563.3,289.038L561.02,288.408C560.36,289.968 558.47,291.018 556.55,291.018C553.82,291.018 551.51,288.858 551.27,285.768L564.26,285.768C564.29,285.588 564.32,285.168 564.32,284.748C564.32,280.548 561.23,276.768 556.49,276.768C551.78,276.768 548.48,280.458 548.48,284.868C548.48,289.278 551.75,292.998 556.46,292.998ZM551.21,283.818C551.42,280.848 553.7,278.748 556.49,278.748C559.28,278.748 561.56,280.818 561.83,283.818L551.21,283.818Z" style="fill:white;fill-rule:nonzero;"/>
                </g>
                <g transform="matrix(-0.124299,0.992245,-0.992245,-0.124299,934.835,-178.436)">
                    <path d="M556.566,307.549C556.356,307.519 556.086,307.519 555.696,307.519C553.716,307.669 551.826,309.109 550.746,311.269L550.746,307.639L548.286,307.639L548.286,323.299L550.926,323.299L550.926,313.639C551.766,311.359 553.926,310.009 556.566,309.949L556.566,307.549Z" style="fill:white;fill-rule:nonzero;"/>
                </g>
                <g transform="matrix(-0.228763,0.973482,-0.973482,-0.228763,1004.3,-102.664)">
                    <path d="M551.875,346.793C555.025,346.793 557.695,345.143 558.715,342.833L556.435,342.203C555.775,343.763 553.885,344.813 551.965,344.813C549.235,344.813 546.925,342.653 546.685,339.563L559.675,339.563C559.705,339.383 559.735,338.963 559.735,338.543C559.735,334.343 556.645,330.563 551.905,330.563C547.195,330.563 543.895,334.253 543.895,338.663C543.895,343.073 547.165,346.793 551.875,346.793ZM546.625,337.613C546.835,334.643 549.115,332.543 551.905,332.543C554.695,332.543 556.975,334.613 557.245,337.613L546.625,337.613Z" style="fill:white;fill-rule:nonzero;"/>
                </g>
                <g transform="matrix(-0.347865,0.937545,-0.937545,-0.347865,1073.79,5.3451)">
                    <path d="M550.758,366.766C550.758,362.986 549.708,360.196 546.078,360.196C543.318,360.196 540.798,361.636 539.568,363.826L539.568,360.466L537.168,360.466L537.168,376.126L539.808,376.126L539.808,366.676C540.528,364.306 542.868,362.566 545.028,362.566C547.098,362.566 548.118,364.036 548.118,367.366L548.118,376.126L550.758,376.126L550.758,366.766Z" style="fill:white;fill-rule:nonzero;"/>
                </g>
                <g transform="matrix(-0.459462,0.888197,-0.888197,-0.459462,1123.52,125.238)">
                    <path d="M524.73,396.633C524.73,401.043 528,404.793 532.71,404.793C535.86,404.793 538.47,403.143 539.4,400.863L536.82,400.083C536.34,401.403 534.48,402.513 532.65,402.513C529.8,402.513 527.43,399.933 527.43,396.633C527.43,393.303 529.71,390.843 532.62,390.843C534.36,390.843 535.89,391.713 536.7,393.183L539.28,392.373C538.14,390.063 535.77,388.563 532.68,388.563C527.91,388.563 524.73,392.223 524.73,396.633Z" style="fill:white;fill-rule:nonzero;"/>
                </g>
                <g transform="matrix(-0.563357,0.826214,-0.826214,-0.563357,1152.02,251.674)">
                    <path d="M518.567,430.551C521.717,430.551 524.387,428.901 525.407,426.591L523.127,425.961C522.467,427.521 520.577,428.571 518.657,428.571C515.927,428.571 513.617,426.411 513.377,423.321L526.367,423.321C526.397,423.141 526.427,422.721 526.427,422.301C526.427,418.101 523.337,414.321 518.597,414.321C513.887,414.321 510.587,418.011 510.587,422.421C510.587,426.831 513.857,430.551 518.567,430.551ZM513.317,421.371C513.527,418.401 515.807,416.301 518.597,416.301C521.387,416.301 523.667,418.371 523.937,421.371L513.317,421.371Z" style="fill:white;fill-rule:nonzero;"/>
                </g>
            </g>
        </g>
        <g transform="matrix(1,0,0,1,12.7342,3.55559)">
            <g>
                <g transform="matrix(0.753976,0.656902,-0.656902,0.753976,354,45.3079)">
                    <path d="M133.253,476.177C131.393,474.917 128.783,473.807 125.813,473.807C121.493,473.807 118.043,476.147 118.043,480.497C118.043,483.767 120.023,485.117 124.073,486.257C127.403,487.187 129.593,487.757 129.593,489.587C129.593,490.997 128.423,491.777 126.173,491.777C122.933,491.777 119.723,489.887 119.003,489.167L117.173,492.737C119.633,494.477 122.933,495.497 126.113,495.497C130.283,495.497 134.003,493.757 134.003,489.167C134.003,485.267 131.363,483.947 127.163,482.867C123.953,482.027 122.303,481.577 122.303,479.837C122.303,478.307 123.443,477.437 125.693,477.437C128.243,477.437 130.883,478.937 131.423,479.537L133.253,476.177Z" style="fill:white;fill-rule:nonzero;"/>
                </g>
                <g transform="matrix(0.821539,0.570153,-0.570153,0.821539,318.092,12.3414)">
                    <path d="M148.422,514.595C153.552,514.595 156.642,510.785 156.642,506.465C156.642,502.085 153.522,498.305 148.422,498.305C143.322,498.305 140.172,502.085 140.172,506.465C140.172,510.785 143.292,514.595 148.422,514.595ZM144.312,506.465C144.312,503.735 146.112,501.725 148.422,501.725C150.732,501.725 152.532,503.705 152.532,506.435C152.532,509.195 150.732,511.175 148.422,511.175C146.112,511.175 144.312,509.225 144.312,506.465Z" style="fill:white;fill-rule:nonzero;"/>
                </g>
                <g transform="matrix(0.881754,0.47171,-0.47171,0.881754,269.747,-14.6202)">
                    <path d="M164.965,519.929C164.965,525.329 169.225,530.909 175.285,530.909C178.735,530.909 182.725,529.139 184.045,525.959L180.655,524.009C179.665,526.319 177.355,527.249 175.405,527.249C171.715,527.249 169.165,523.829 169.165,520.049C169.165,516.659 171.205,512.969 175.345,512.969C177.235,512.969 179.485,513.749 180.565,516.149L183.745,513.959C182.365,511.199 179.365,509.309 175.465,509.309C168.835,509.309 164.965,514.739 164.965,519.929Z" style="fill:white;fill-rule:nonzero;"/>
                </g>
                <g transform="matrix(0.925977,0.377581,-0.377581,0.925977,220.046,-32.3144)">
                    <path d="M203.628,529.15C203.448,529.12 203.238,529.12 202.818,529.12C201.138,529.12 199.068,530.56 197.958,532.69L197.958,529.33L194.268,529.33L194.268,545.05L198.288,545.05L198.288,535.54C199.128,533.77 201.198,532.84 203.628,532.81L203.628,529.15Z" style="fill:white;fill-rule:nonzero;"/>
                </g>
                <g transform="matrix(0.956514,0.291686,-0.291686,0.956514,170.628,-38.1485)">
                    <path d="M219.376,553.478C221.656,553.478 223.726,552.488 225.136,550.658L225.226,551.528C225.436,552.638 226.246,553.388 227.746,553.388C228.226,553.388 228.796,553.328 229.516,553.178L229.516,549.758C228.826,549.728 228.556,549.398 228.556,548.558L228.556,543.668C228.556,539.498 225.916,537.188 221.416,537.188C219.076,537.188 216.916,537.848 214.876,539.198L216.106,541.748C217.786,540.578 219.346,539.978 221.026,539.978C223.336,539.978 224.536,541.148 224.536,543.218L224.536,544.118C223.516,543.668 222.106,543.428 220.696,543.428C216.766,543.428 214.006,545.498 214.006,548.498C214.006,551.348 216.316,553.478 219.376,553.478ZM220.516,550.538C218.986,550.538 217.816,549.518 217.816,548.168C217.816,546.728 219.286,545.678 221.356,545.678C222.376,545.678 223.576,545.918 224.536,546.278L224.536,548.078C224.536,548.468 224.296,548.888 223.876,549.218C223.186,550.028 221.866,550.538 220.516,550.538Z" style="fill:white;fill-rule:nonzero;"/>
                </g>
                <g transform="matrix(0.980008,0.198958,-0.198958,0.980008,116.172,-35.9639)">
                    <path d="M255.19,538.781L237.46,538.781L237.46,542.411L244.27,542.411L244.27,560.081L248.38,560.081L248.38,542.411L255.19,542.411L255.19,538.781Z" style="fill:white;fill-rule:nonzero;"/>
                </g>
                <g transform="matrix(0.994668,0.103129,-0.103129,0.994668,59.661,-24.0892)">
                    <path d="M271.91,565.22C275.39,565.22 278.09,563.51 279.23,561.11L275.78,560.15C275.27,561.44 273.65,562.28 272.06,562.28C269.96,562.28 268.1,560.81 267.89,558.35L280.04,558.35C280.1,558.02 280.13,557.51 280.13,557C280.13,552.74 277.07,548.93 271.94,548.93C266.81,548.93 263.63,552.68 263.63,557.15C263.63,561.5 266.84,565.22 271.91,565.22ZM267.83,555.74C268.01,553.4 269.72,551.84 271.88,551.84C274.07,551.84 275.78,553.4 275.99,555.74L267.83,555.74Z" style="fill:white;fill-rule:nonzero;"/>
                </g>
                <g transform="matrix(0.999998,0.00198209,-0.00198209,0.999998,1.12498,-0.577395)">
                    <path d="M299.638,567.585C303.538,567.585 305.998,565.665 305.998,562.605C305.998,559.965 304.258,558.945 299.908,557.865C297.598,557.265 296.818,556.965 296.818,555.885C296.818,554.655 297.868,554.115 299.218,554.115C300.688,554.115 302.188,554.655 303.778,555.855L305.398,553.425C303.688,551.925 301.588,551.265 299.248,551.265C295.738,551.265 293.068,553.245 293.068,556.455C293.068,558.855 294.568,559.725 298.678,560.835C301.138,561.495 302.128,561.855 302.128,562.965C302.128,564.075 301.138,564.705 299.548,564.705C297.748,564.705 295.918,563.985 294.028,562.635L292.528,565.155C294.298,566.715 297.028,567.585 299.638,567.585Z" style="fill:white;fill-rule:nonzero;"/>
                </g>
                <g transform="matrix(0.986228,-0.165392,0.165392,0.986228,-88.8827,63.1149)">
                    <path d="M334.688,565.262L338.948,565.262L340.898,559.952L348.338,559.952L350.318,565.262L354.578,565.262L346.478,543.962L342.818,543.962L334.688,565.262ZM341.588,557.042L344.648,548.672L347.588,557.042L341.588,557.042Z" style="fill:white;fill-rule:nonzero;"/>
                </g>
                <g transform="matrix(0.962996,-0.269515,0.269515,0.962996,-137.453,118.65)">
                    <path d="M381.515,538.59L363.785,538.59L363.785,542.22L370.595,542.22L370.595,559.89L374.705,559.89L374.705,542.22L381.515,542.22L381.515,538.59Z" style="fill:white;fill-rule:nonzero;"/>
                </g>
                <g transform="matrix(0.900766,-0.434304,0.434304,0.900766,-196.246,231.087)">
                    <path d="M424.783,544.986L424.783,541.356L413.923,541.356L413.923,523.686L409.783,523.686L409.783,544.986L424.783,544.986Z" style="fill:white;fill-rule:nonzero;"/>
                </g>
                <g transform="matrix(0.861286,-0.508121,0.508121,0.861286,-210.345,293.736)">
                    <path d="M438.666,532.122L438.666,516.402L434.646,516.402L434.646,532.122L438.666,532.122ZM438.666,514.212L438.666,510.222L434.646,510.222L434.646,514.212L438.666,514.212Z" style="fill:white;fill-rule:nonzero;"/>
                </g>
                <g transform="matrix(0.813013,-0.582246,0.582246,0.813013,-220.323,358.929)">
                    <path d="M465.099,512.679C465.099,509.619 464.289,506.499 460.359,506.499C457.629,506.499 455.289,507.699 454.119,509.679L454.119,506.769L450.489,506.769L450.489,522.489L454.509,522.489L454.509,513.309C455.109,511.419 456.969,510.039 458.589,510.039C460.149,510.039 461.079,511.149 461.079,513.669L461.079,522.489L465.099,522.489L465.099,512.679Z" style="fill:white;fill-rule:nonzero;"/>
                </g>
                <g transform="matrix(0.749677,-0.661804,0.661804,0.749677,-215.987,438.812)">
                    <path d="M472.852,504.92L485.992,504.92L485.992,502.1L477.142,502.1L485.842,491.66L485.842,489.2L473.212,489.2L473.212,492.02L481.612,492.02L472.852,502.46L472.852,504.92Z" style="fill:white;fill-rule:nonzero;"/>
                </g>
            </g>
        </g>
        <g transform="matrix(1.01626,0,0,1.09862,6.25611,8.28498)">
            <path d="M376.25,221L330,221C328.278,220.936 327.994,220.77 327.26,220.482C324.483,219.392 322.615,216.563 322.5,213.5L322.5,141.5C322.635,137.879 325.326,134.62 328.882,134.084C329.376,134.009 329.502,134.019 330,134L438,134C438.187,134.007 438.374,134.014 438.56,134.021C440.273,134.214 440.543,134.4 441.254,134.743C443.78,135.959 445.394,138.669 445.5,141.5L445.5,213.5C445.436,215.222 445.27,215.505 444.982,216.24C443.892,219.016 441.063,220.885 438,221L391.75,221L391.75,232.779L415.75,232.779C415.787,232.785 421.356,233.726 422.803,237.73C424.374,242.076 421.028,247.57 416.056,247.773C415.954,247.777 415.852,247.777 415.75,247.779L384.25,247.779C384.165,247.777 384.08,247.774 383.996,247.77C383.914,247.774 383.832,247.777 383.75,247.779L352.25,247.779C345.752,247.647 341.797,237.351 348.723,233.66C349.533,233.228 350.423,232.947 351.334,232.835C351.638,232.798 351.944,232.785 352.25,232.779L376.25,232.779L376.25,221ZM430.5,149L337.5,149L337.5,206L430.5,206L430.5,149Z" style="fill:rgb(220,38,38);fill-rule:nonzero;"/>
        </g>
        <g transform="matrix(1.01626,0,0,1.00806,22.1992,-0.592799)">
            <path d="M257,445.5L149,445.5C147.278,445.436 146.994,445.27 146.26,444.982C143.484,443.892 141.615,441.063 141.5,438L141.5,329C141.564,327.278 141.73,326.994 142.018,326.26C143.108,323.484 145.937,321.615 149,321.5L257,321.5C257.187,321.507 257.374,321.514 257.56,321.521C260.966,321.905 263.909,324.52 264.416,327.882C264.491,328.376 264.481,328.502 264.5,329L264.5,438C264.365,441.621 261.674,444.88 258.118,445.416C257.624,445.491 257.498,445.481 257,445.5ZM249.5,336.5L156.5,336.5L156.5,430.5L249.5,430.5L249.5,336.5ZM235.199,353.745C238.64,354.09 239.122,355.023 240.116,356.076C242.749,358.864 242.69,363.646 239.967,366.529L195.419,411.077C194.424,412.018 194.065,412.196 193.37,412.531C190.847,413.746 187.655,413.404 185.44,411.638C185.147,411.404 185.084,411.334 184.813,411.077L166.033,392.298C164.829,391.023 164.59,390.45 164.237,389.414C162.619,384.664 167.048,378.722 172.51,379.587C174.063,379.833 175.499,380.614 176.64,381.691L190.116,395.167L229.36,355.923C229.36,355.923 232.346,353.623 235.199,353.745Z" style="fill:rgb(220,38,38);fill-rule:nonzero;"/>
        </g>
        <g transform="matrix(1,0,0,1,9,-1.49997)">
            <path d="M325.015,367.351C325.007,367.234 325.002,367.117 325,367L325,334C325.027,332.681 325.151,332.247 325.412,331.467C326.498,328.213 329.858,325.937 333.322,326.006C334.639,326.086 335.067,326.228 335.837,326.52C338.844,327.66 340.934,330.746 341,334L341,359L340.998,359.003L341.005,359L364.005,359C367.259,359.066 370.345,361.156 371.485,364.163C371.777,364.933 371.919,365.361 371.998,366.678C372.068,370.142 369.792,373.502 366.538,374.588C365.758,374.849 365.324,374.973 364.005,375L333,375C331.681,374.973 331.247,374.849 330.467,374.588C329.253,374.183 328.173,373.462 327.301,372.538C326.456,371.695 325.797,370.673 325.417,369.533C325.181,368.826 325.056,368.404 325.015,367.351Z" style="fill:white;fill-rule:nonzero;"/>
            <g transform="matrix(0.872,0,0,0.872,202.227,49.5997)">
                <path d="M212.962,315.827C245.831,316.139 277.051,341.259 283.054,374.827C286.347,393.238 282.089,412.917 271.434,428.283C258.558,446.852 236.489,458.731 213.885,459.161C190.215,459.612 166.787,447.6 153.283,427.881C153.283,427.881 150.025,421.729 152.898,417.308C156.219,412.198 164.679,411.976 168.326,417.371C168.482,417.601 168.639,417.83 168.798,418.057C183.475,438.962 213.595,446.689 236.471,435.14C260.138,423.192 272.758,392.149 261.38,366.163C254.148,349.645 238.087,337.347 220.294,334.74C200.626,331.858 179.782,340.757 168.326,357.629C168.326,357.629 164.255,362.364 159.512,361.803C153.253,361.062 149.22,353.078 153.283,347.119C166.238,328.121 188.765,315.962 212.22,315.826C212.467,315.826 212.715,315.826 212.962,315.827Z" style="fill:white;fill-rule:nonzero;"/>
            </g>
        </g>
        <g transform="matrix(0.998159,0,0,0.998159,4.02935,3.21178)">
            <g transform="matrix(1,0,0,1,12.5,2)">
                <path d="M196.663,214.783C196.663,214.783 198.888,212.718 199.568,211.843L207.056,214.458C212.385,215.946 215.523,218.522 215.523,223.528L215.523,241.667C215.523,246.643 211.774,250.688 207.056,250.737L158.236,250.737C153.563,250.737 149.769,246.673 149.769,241.667L149.769,223.528C149.769,218.522 152.933,216.376 158.236,214.458L165.724,211.843C169.769,217.044 175.85,219.342 182.646,219.342C187.982,219.342 192.878,217.925 196.663,214.783Z" style="fill:white;"/>
            </g>
            <g transform="matrix(1.00706,0,0,1.00706,11.21,0.493923)">
                <circle cx="182.646" cy="195.5" r="19.5" style="fill:white;"/>
            </g>
            <g transform="matrix(1,0,0,1,13.8722,1.263)">
                <path d="M216.199,215.226C217.858,215.669 219.623,215.875 221.452,215.875C226.928,215.875 231.829,214.024 235.088,209.832L241.122,211.94C245.417,213.139 247.945,215.215 247.945,219.249L247.945,233.866C247.945,237.773 245.077,240.968 241.122,241.174L218.919,241.174L218.92,224.101C218.861,220.161 217.163,217.014 214.577,214.704L216.199,215.226Z" style="fill:white;"/>
            </g>
            <g transform="matrix(0.735264,0,0,0.735264,105.195,54.6731)">
                <path d="M216.199,215.226C217.858,215.669 219.623,215.875 221.452,215.875C226.928,215.875 231.829,214.024 235.088,209.832L241.122,211.94C245.417,213.139 247.945,215.215 247.945,219.249L247.945,233.866C247.945,237.773 245.077,240.968 241.122,241.174L218.919,241.174L218.92,224.101C218.861,220.161 217.163,217.014 214.577,214.704L216.199,215.226Z" style="fill:white;"/>
            </g>
            <g transform="matrix(0.596685,0,0,0.596685,158.518,81.3606)">
                <circle cx="182.646" cy="195.5" r="19.5" style="fill:white;"/>
            </g>
            <g transform="matrix(0.811525,0,0,0.811525,86.2781,38.3716)">
                <circle cx="182.646" cy="195.5" r="19.5" style="fill:white;"/>
            </g>
        </g>
    </g>
</svg>
